<svg viewBox="0 0 512 512" xmlns="http://www.w3.org/2000/svg"><g fill-rule="evenodd"><path d="m471.95 253.05c0 120.9-98.01 218.9-218.9 218.9-120.9 0-218.9-98.01-218.9-218.9 0-120.9 98.01-218.9 218.9-218.9 120.9 0 218.9 98.01 218.9 218.9" fill="#6ea6c1"/><path d="m313.78 161.28c-1.551.052-3.197.427-4.969 1.125-.01.004-.021-.004-.031 0-3.747 1.406-5.826 4.663-6.719 8.406-.895 3.752-.74 8.107-.156 12.375.445 3.251 1.127 6.454 1.844 9.281-.301-.319-.627-.617-.938-.906-.326-.35-.631-.685-.969-1-.453-.486-.901-.927-1.375-1.344-.336-.344-.652-.694-1-1-.178-.182-.35-.359-.531-.531-.354-.384-.726-.751-1.094-1.094-.325-.349-.663-.686-1-1-.326-.35-.631-.685-.969-1-.453-.486-.901-.927-1.375-1.344-.336-.344-.652-.694-1-1-.178-.182-.35-.359-.531-.531-.354-.384-.726-.751-1.094-1.094-.325-.349-.663-.686-1-1-.326-.35-.631-.685-.969-1-.453-.486-.901-.927-1.375-1.344-.336-.344-.652-.694-1-1-.336-.344-.652-.694-1-1-1.329-1.168-2.755-2.047-4.344-2.438-1.589-.39-3.313-.218-4.938.594h-.062c-4.149 2.288-6.37 5.946-7.281 9.875s-.6 8.153.063 12.09c.662 3.94 1.679 7.59 2.344 10.25.332 1.33.569 2.456.625 3.094.017.191.005.201 0 .281-3.01 1.841-4.463 4.82-5.625 7.875-1.206 3.17-2.229 6.516-4.313 9.406-.646.926-2.01 1.74-4.094 2.281-2.086.541-4.832.807-8.03.813-6.398.01-14.552-.986-23.06-2.344-17.02-2.716-35.31-6.905-44.625-7.469-6.994-.413-13.656 2.233-18.688 4.719-2.516 1.243-4.618 2.463-6.125 3.25-.714.373-1.283.627-1.625.75-16.253-16.206-49.19-43.936-85.72-53.28-.009-.002-.023.002-.031 0-5.995-1.629-12.961-4.202-19.75-7-.996 2.362-1.929 4.753-2.844 7.156l1.063.5-.156.438 1.156.563-.156.438 1.125.531-.156.438 1.156.563-.156.438 1.156.563c-.076.199-.156.438-.156.438l1.156.563c-.076.199-.156.438-.156.438.001.001 1.107.539 1.156.563-.076.199-.156.438-.156.438l1.156.563c-.076.198-.156.438-.156.438l1.125.531c-.076.198-.156.438-.156.438l1.156.563-.156.438c.002.001 1.107.539 1.156.563-.076.198-.156.438-.156.438l1.156.563c-.076.198-.156.438-.156.438.002.001 1.107.539 1.156.563-.076.198-.156.438-.156.438.002.001 1.107.539 1.156.563-.076.198-.156.438-.156.438.003.001 1.012.478 1.125.531-.076.198-.156.438-.156.438.003.001 1.107.539 1.156.563-.076.198-.156.438-.156.438.003.001 1.107.539 1.156.563-.076.198-.156.438-.156.438.003.002 1.108.539 1.156.563-.076.198-.156.438-.156.438.003.002 1.108.539 1.156.563-.076.198-.156.438-.156.438.004.002 1.108.539 1.156.563-.076.198-.156.438-.156.438.004.002 1.012.478 1.125.531-.079.205-.156.438-.156.438h.031c.004.002 1.076.539 1.125.563-.076.198-.156.438-.156.438.004.002 1.108.539 1.156.563-.076.198-.156.438-.156.438.004.002 1.108.539 1.156.563-.076.198-.156.438-.156.438.004.002 1.108.539 1.156.563-.076.198-.156.438-.156.438.005.002 1.108.539 1.156.563-.076.198-.156.438-.156.438.005.002 1.108.539 1.156.563-.076.198-.156.438-.156.438.005.002 1.012.478 1.125.531-.076.198-.156.438-.156.438.005.002 1.108.539 1.156.563-.076.198-.156.438-.156.438.005.003 1.108.539 1.156.563-.076.198-.156.438-.156.438.005.003 1.108.539 1.156.563l-.156.438c.006.003 1.108.539 1.156.563l-.156.438c.006.003 1.108.539 1.156.563-.076.198-.156.438-.156.438.006.003 1.012.478 1.125.531-.076.198-.156.438-.156.438.006.003 1.108.539 1.156.563-.076.198-.156.438-.156.438.006.003 1.108.539 1.156.563-.076.198-.156.438-.156.438.006.003 1.108.539 1.156.563l-.156.438c.007.003 1.108.539 1.156.563-.076.198-.156.438-.156.438.007.003 1.108.539 1.156.563-.076.198-.156.438-.156.438.007.003 1.012.478 1.125.531-.076.198-.156.438-.156.438.007.003 1.108.539 1.156.563-.076.198-.156.438-.156.438.007.004 1.108.54 1.156.563-.076.198-.156.438-.156.438.008.004 1.108.54 1.156.563-.076.198-.156.438-.156.438.008.004 1.108.54 1.156.563-.076.198-.156.438-.156.438.008.004 1.108.54 1.156.563-.076.198-.156.438-.156.438.008.004 1.108.54 1.156.563-.076.198-.156.438-.156.438.008.004 1.013.478 1.125.531-.076.198-.156.438-.156.438.008.004 1.108.54 1.156.563-.076.198-.156.438-.156.438.009.004 1.108.54 1.156.563-.076.198-.156.438-.156.438.009.004 1.108.54 1.156.563-.076.198-.156.438-.156.438.009.004 1.108.54 1.156.563-.076.197-.156.438-.156.438.009.004 1.108.54 1.156.563-.076.197-.156.438-.156.438.009.004 1.013.478 1.125.531-.076.197-.156.438-.156.438.01.005 1.108.54 1.156.563-.076.197-.156.438-.156.438.01.005 1.108.54 1.156.563-.076.197-.156.438-.156.438.01.005 1.108.54 1.156.563-.076.197-.156.438-.156.438.01.005 1.108.54 1.156.563-.076.197-.156.438-.156.438.01.005 1.108.54 1.156.563-.076.197-.156.438-.156.438.01.005 1.013.478 1.125.531-.076.197-.156.438-.156.438.01.005 1.108.54 1.156.563-.076.197-.156.438-.156.438.011.005 1.108.54 1.156.563-.076.197-.156.438-.156.438.011.005 1.108.54 1.156.563-.076.197-.156.438-.156.438.011.005 1.108.54 1.156.563-.076.197-.156.438-.156.438.011.005 1.108.54 1.156.563-.076.197-.156.438-.156.438.011.006 1.013.478 1.125.531-.078.204-.156.438-.156.438h.031c.012.006 1.076.539 1.125.563-.076.197-.156.438-.156.438.012.006 1.108.54 1.156.563-.076.197-.156.438-.156.438.012.006 1.108.54 1.156.563-.076.197-.156.438-.156.438.012.006 1.108.54 1.156.563-.076.197-.156.438-.156.438.012.006 1.108.54 1.156.563l-.156.438c.012.006 1.108.54 1.156.563-.076.197-.156.438-.156.438.012.006 1.013.478 1.125.531-.076.197-.156.438-.156.438.013.006 1.108.54 1.156.563-.076.197-.156.438-.156.438.013.006 1.108.54 1.156.563-.076.197-.156.438-.156.438.013.006 1.108.54 1.156.563-.076.197-.156.438-.156.438.013.006 1.108.54 1.156.563-.076.197-.156.438-.156.438.013.007 1.108.54 1.156.563-.076.197-.156.438-.156.438.013.007 1.013.478 1.125.531-.076.197-.156.438-.156.438.014.007 1.108.54 1.156.563-.076.197-.156.438-.156.438.014.007 1.108.54 1.156.563-.076.197-.156.438-.156.438.014.007 1.108.54 1.156.563-.076.197-.156.438-.156.438.014.007 1.108.54 1.156.563-.076.197-.156.438-.156.438l1.156.563c-.076.197-.156.438-.156.438.014.007 1.013.478 1.125.531l-.156.438c.015.007 1.108.54 1.156.563-.076.197-.156.438-.156.438.015.007 1.108.54 1.156.563-.076.197-.156.438-.156.438.015.007 1.108.54 1.156.563-.076.197-.156.438-.156.438.015.007 1.108.54 1.156.563-.076.197-.156.438-.156.438.002.001.1.051.125.063-3.3 11.719-4.227 25.838-1.656 44.06.096.668-.515 2.164-1.969 3.938-1.454 1.775-3.542 3.809-5.656 5.969s-4.268 4.424-5.844 6.813c-1.576 2.388-2.65 4.984-2.25 7.656.171 1.036.796 1.982 1.625 2.5.276.398.608.755 1 1 .262.378.57.696.938.938.282.424.651.775 1.063 1.031.259.374.575.697.938.938.283.426.619.805 1.031 1.063.277.4.606.754 1 1 .276.398.608.755 1 1 .262.378.57.696.938.938.269.404.612.746 1 1 .282.424.651.775 1.063 1.031.259.374.575.697.938.938.283.426.619.805 1.031 1.063.276.398.608.755 1 1 .276.398.608.755 1 1 .23.328.501.617.813.844-.313 1.233-.58 2.429-.75 3.5-.212 1.336-.329 2.518-.156 3.594.152.941.635 1.948 1.531 2.469.246.396.583.757 1 1 .246.396.583.757 1 1 .246.396.552.726.969.969.248.411.57.75 1 1 .247.406.575.753 1 1 .246.396.583.757 1 1 .246.396.583.757 1 1 .246.396.583.757 1 1 .246.396.552.726.969.969.248.411.57.75 1 1 .248.408.573.752 1 1 .246.399.581.756 1 1 .246.396.583.757 1 1 .246.396.583.757 1 1 .246.396.583.726 1 .969.247.406.544.753.969 1 .248.408.573.752 1 1 .246.399.581.756 1 1 .246.396.583.757 1 1 .246.396.583.757 1 1 .246.396.583.757 1 1 .246.396.552.726.969.969.248.408.573.752 1 1 .246.399.581.756 1 1 .246.396.583.757 1 1 .246.396.583.757 1 1 .246.396.583.757 1 1 .246.396.552.726.969.969.248.411.57.75 1 1 .247.406.575.753 1 1 .246.399.581.756 1 1 .246.396.583.757 1 1 .246.396.583.757 1 1 .246.396.552.726.969.969.248.411.57.75 1 1 .248.408.573.752 1 1 .246.399.581.756 1 1 .246.396.583.757 1 1 .246.396.583.757 1 1 .246.396.583.726 1 .969.247.406.544.753.969 1 .248.408.573.752 1 1 .246.399.581.756 1 1 .246.396.583.757 1 1 .246.396.583.757 1 1 .246.396.583.757 1 1 .246.396.552.726.969.969.248.408.573.752 1 1 .247.406.575.753 1 1 .246.396.583.757 1 1 .246.396.583.757 1 1 .246.396.583.757 1 1 .246.396.552.726.969.969.248.411.57.75 1 1 .248.408.573.752 1 1 .246.399.581.756 1 1 .246.396.583.757 1 1 .246.396.583.757 1 1 .246.396.583.726 1 .969.247.406.544.753.969 1 .248.408.573.752 1 1 .246.399.581.756 1 1 .246.396.583.757 1 1 .246.396.583.757 1 1 .246.396.583.726 1 .969.247.406.544.753.969 1 .248.408.573.752 1 1 .246.399.581.756 1 1 .246.396.583.757 1 1 .246.396.583.757 1 1 .246.396.583.757 1 1 .246.396.552.726.969.969.248.411.57.75 1 1 .247.406.575.753 1 1 .246.396.583.757 1 1 .246.396.583.757 1 1 .246.396.583.757 1 1 .246.396.552.726.969.969.248.411.57.75 1 1 .248.408.573.752 1 1 .246.399.581.756 1 1 .246.396.583.757 1 1 .246.396.583.757 1 1 .246.396.583.726 1 .969.247.406.544.753.969 1 .248.408.573.752 1 1 .246.399.581.756 1 1 .246.396.583.757 1 1 .246.396.583.757 1 1 .246.396.583.757 1 1 .246.396.552.726.969.969.248.408.573.752 1 1 .246.399.581.756 1 1 .246.396.583.757 1 1 .246.396.583.757 1 1 .246.396.583.757 1 1 .246.396.552.726.969.969.248.411.57.75 1 1 .247.406.575.753 1 1 .246.399.581.756 1 1 .246.396.583.757 1 1 .246.396.583.757 1 1 .246.396.583.726 1 .969.247.406.544.753.969 1 .248.408.573.752 1 1 .246.399.581.756 1 1 .246.396.583.757 1 1 .246.396.583.757 1 1 .246.396.583.726 1 .969.247.406.544.753.969 1 .248.408.573.752 1 1 .246.399.581.756 1 1 .246.396.583.757 1 1 .246.396.583.757 1 1 .096.155.221.298.344.438 1.213.02 2.408.063 3.625.063 120.9 0 218.91-98.01 218.91-218.91 0-1.054-.016-2.106-.031-3.156-.052-.096-.108-.203-.219-.313l-.031-.031c-.122-.102-.322-.155-.375-.156-.074-.061-.166-.089-.25-.125-.011-.172-.035-.382-.313-.656l-.063-.063c-.12-.1-.323-.155-.375-.156-.082-.068-.158-.088-.25-.125-.012-.172-.038-.386-.313-.656l-.063-.063c-.118-.099-.292-.124-.344-.125-.075-.062-.165-.12-.25-.156-.015-.172-.076-.392-.344-.656l-.063-.063c-.117-.097-.293-.124-.344-.125-.079-.065-.162-.119-.25-.156-.015-.174-.074-.39-.344-.656l-.063-.063c-.115-.095-.294-.124-.344-.125-.079-.065-.161-.119-.25-.156-.015-.175-.072-.388-.344-.656l-.063-.063c-.113-.094-.264-.124-.313-.125-.086-.071-.185-.118-.281-.156-.02-.173-.087-.403-.344-.656l-.031-.031c-.111-.092-.296-.124-.344-.125-.089-.074-.181-.148-.281-.188-.02-.174-.054-.37-.313-.625l-.063-.063c-.109-.091-.297-.124-.344-.125-.078-.065-.162-.118-.25-.156-.015-.178-.067-.383-.344-.656l-.063-.063c-.107-.089-.266-.124-.313-.125-.081-.067-.19-.118-.281-.156-.017-.178-.073-.389-.344-.656l-.063-.063c-.105-.088-.267-.124-.313-.125-.088-.073-.182-.117-.281-.156-.02-.177-.08-.396-.344-.656l-.063-.063c-.103-.086-.268-.124-.313-.125-.091-.075-.179-.116-.281-.156-.02-.178-.078-.394-.344-.656l-.063-.063c-.101-.084-.237-.093-.281-.094-.092-.076-.21-.147-.313-.188-.022-.177-.084-.4-.344-.656l-.031-.031c-.1-.083-.27-.124-.313-.125-.099-.082-.202-.146-.313-.188-.025-.175-.061-.376-.313-.625l-.063-.063c-.098-.081-.27-.124-.313-.125-.091-.075-.179-.147-.281-.188-.025-.177-.089-.373-.344-.625l-.063-.063c-.096-.08-.24-.124-.281-.125-.091-.075-.21-.115-.313-.156-.022-.18-.078-.394-.344-.656l-.063-.063c-.094-.078-.241-.124-.281-.125-.094-.078-.207-.115-.313-.156-.022-.181-.077-.393-.344-.656l-.063-.063c-.092-.077-.242-.093-.281-.094-.1-.083-.2-.145-.313-.188-.025-.179-.085-.401-.344-.656l-.063-.063c-.09-.075-.211-.093-.25-.094-.101-.084-.23-.145-.344-.188-.027-.179-.089-.405-.344-.656l-.031-.031c-.088-.074-.243-.124-.281-.125-.094-.078-.207-.145-.313-.188-.027-.18-.086-.371-.344-.625l-.063-.063c-.086-.072-.244-.124-.281-.125-.102-.085-.198-.113-.313-.156-.022-.186-.069-.385-.344-.656l-.063-.063c-.084-.07-.214-.093-.25-.094-.103-.085-.228-.144-.344-.188-.027-.182-.084-.4-.344-.656l-.063-.063c-.083-.069-.215-.093-.25-.094-.104-.086-.228-.144-.344-.188-.027-.183-.083-.399-.344-.656l-.063-.063c-.081-.067-.215-.093-.25-.094-.096-.079-.205-.144-.313-.188-.027-.184-.111-.396-.375-.656-.005-.006-.063-.063-.063-.063-.079-.066-.185-.093-.219-.094-.105-.087-.226-.143-.344-.188-.029-.184-.115-.399-.375-.656l-.031-.031c-.077-.064-.217-.124-.25-.125-.106-.088-.224-.143-.344-.188-.033-.18-.094-.379-.344-.625l-.063-.063c-.075-.063-.218-.093-.25-.094-.106-.088-.225-.143-.344-.188-.028-.187-.076-.392-.344-.656l-.063-.063c-.073-.061-.188-.093-.219-.094-.104-.086-.227-.143-.344-.188-.029-.187-.11-.394-.375-.656l-.063-.063c-.071-.06-.188-.093-.219-.094-.116-.096-.245-.141-.375-.188-.033-.183-.091-.407-.344-.656l-.063-.063c-.069-.058-.189-.093-.219-.094-.108-.089-.222-.142-.344-.188-.033-.184-.12-.404-.375-.656l-.063-.063c-.067-.056-.159-.062-.188-.063-.109-.09-.253-.173-.375-.219-.034-.183-.122-.406-.375-.656l-.031-.031c-.066-.055-.191-.093-.219-.094-.107-.088-.224-.141-.344-.188-.029-.191-.103-.388-.375-.656l-.11-.09c-.064-.053-.192-.093-.219-.094-.115-.095-.246-.141-.375-.188-.034-.187-.085-.401-.344-.656l-.063-.063c-.062-.052-.161-.093-.188-.094-.12-.099-.273-.14-.406-.188-.035-.186-.087-.403-.344-.656l-.063-.063c-.06-.05-.162-.093-.188-.094-.117-.096-.244-.14-.375-.188-.035-.187-.116-.4-.375-.656l-.063-.063c-.058-.049-.163-.062-.188-.063-.117-.097-.244-.171-.375-.219-.036-.187-.118-.402-.375-.656l-.063-.063c-.056-.047-.133-.062-.156-.063-.12-.099-.272-.171-.406-.219-.04-.182-.13-.414-.375-.656l-.031-.031c-.054-.046-.165-.093-.188-.094-.122-.101-.269-.139-.406-.188-.035-.19-.081-.397-.344-.656l-.063-.063c-.053-.044-.166-.093-.188-.094-.119-.099-.241-.139-.375-.188-.035-.191-.11-.394-.375-.656l-.063-.063c-.05-.042-.135-.093-.156-.094-.12-.099-.272-.139-.406-.188-.041-.185-.125-.409-.375-.656l-.063-.063c-.049-.041-.136-.062-.156-.063-.121-.1-.271-.17-.406-.219-.041-.186-.124-.409-.375-.656l-.063-.063c-.047-.039-.137-.062-.156-.063-.131-.108-.26-.169-.406-.219-.042-.186-.125-.409-.375-.656l-.063-.063c-.045-.038-.106-.062-.125-.063-.124-.102-.268-.169-.406-.219-.042-.187-.154-.408-.406-.656l-.031-.031c-.043-.036-.139-.093-.156-.094-.123-.101-.269-.137-.406-.188-.041-.189-.119-.404-.375-.656l-.063-.063c-.041-.035-.139-.062-.156-.063-.123-.102-.268-.168-.406-.219-.042-.189-.121-.405-.375-.656l-.063-.063c-.039-.033-.109-.062-.125-.063-.136-.112-.287-.199-.438-.25-.047-.182-.135-.388-.375-.625l-.063-.063c-.037-.031-.11-.062-.125-.063-.136-.113-.286-.199-.438-.25-.047-.183-.134-.387-.375-.625l-.063-.063c-.036-.03-.111-.062-.125-.063-.127-.105-.264-.167-.406-.219-.047-.184-.163-.417-.406-.656l-.063-.063c-.034-.028-.08-.031-.094-.031-.131-.108-.291-.167-.438-.219-.043-.193-.146-.431-.406-.688l-.031-.031c-.032-.027-.112-.062-.125-.063-.131-.109-.291-.167-.438-.219-.043-.194-.114-.398-.375-.656l-.063-.063c-.03-.025-.113-.062-.125-.063-.139-.115-.282-.198-.438-.25-.048-.186-.13-.383-.375-.625l-.063-.063c-.028-.024-.083-.062-.094-.063-.131-.108-.291-.198-.438-.25-.053-.18-.175-.396-.406-.625l-.063-.063c-.026-.022-.084-.062-.094-.063-.135-.112-.287-.166-.438-.219-.048-.189-.157-.41-.406-.656l-.063-.063c-.024-.021-.084-.031-.094-.031-.136-.112-.286-.197-.438-.25-.049-.189-.157-.41-.406-.656l-.063-.063c-.022-.019-.054-.031-.063-.031-.142-.118-.31-.196-.469-.25-.053-.182-.171-.393-.406-.625v-.031l-.063-.031c-.02-.018-.055-.062-.063-.063-.147-.121-.306-.196-.469-.25-.053-.183-.139-.392-.375-.625l-.063-.063c-.019-.016-.087-.062-.094-.063-.139-.115-.282-.196-.438-.25-.054-.184-.169-.39-.406-.625l-.063-.063c-.017-.014-.057-.062-.063-.063-.138-.114-.314-.165-.469-.219-.049-.193-.152-.405-.406-.656l-.063-.063c-.015-.013-.058-.031-.063-.031-.139-.115-.313-.195-.469-.25-.054-.186-.166-.419-.406-.656l-.063-.063c-.013-.011-.058-.031-.063-.031-.148-.122-.304-.195-.469-.25-.054-.187-.165-.418-.406-.656l-.063-.063c-.011-.01-.028-.031-.031-.031-.142-.117-.31-.195-.469-.25-.054-.188-.164-.417-.406-.656h-.031l-.031-.063c-.009-.008-.06-.031-.063-.031-.143-.118-.31-.195-.469-.25-.055-.188-.162-.384-.406-.625l-.063-.063c-.007-.007-.061-.031-.063-.031-.145-.12-.307-.194-.469-.25-.055-.189-.161-.414-.406-.656l-.063-.063c-.005-.005-.03-.031-.031-.031-.151-.125-.332-.194-.5-.25-.055-.19-.16-.413-.406-.656l-.063-.063-.031-.031c-.382-.316-.925-.372-1.094-.375-.678-.012-1.094.222-1.469.469s-.724.546-1.094.906c-.74.721-1.556 1.695-2.438 2.844-.633.825-1.324 1.764-2 2.75-.024-.032-.038-.069-.188-.188-.013-.01-.017-.002-.031 0-.099-.078-.25-.14-.406-.188-.106-.165-.218-.333-.375-.5v-.031l.063-.031c-.002-.002-.023-.025-.031-.031-.032-.036-.012-.049-.188-.188-.011-.009-.05-.033-.063-.031-.094-.074-.229-.141-.375-.188-.107-.166-.248-.332-.406-.5l.063-.063c-.001-.002-.024-.025-.031-.031-.033-.037-.012-.048-.188-.188-.01-.008-.051-.033-.063-.031-.094-.075-.228-.141-.375-.188-.107-.167-.247-.331-.406-.5l.063-.063c-.033-.037-.042-.078-.219-.219-.009-.007-.022-.001-.031 0-.098-.077-.253-.14-.406-.188-.11-.177-.238-.353-.406-.531l.063-.063c-.033-.037-.041-.078-.219-.219-.008-.006-.023-.001-.031 0-.101-.08-.247-.139-.406-.188-.108-.169-.246-.361-.406-.531l.063-.063c-.033-.037-.04-.077-.219-.219-.006-.005-.024 0-.031 0-.102-.081-.246-.139-.406-.188-.109-.17-.245-.36-.406-.531l.063-.063c-.033-.037-.039-.076-.219-.219-.096-.076-.256-.14-.406-.188-.11-.171-.244-.328-.406-.5v-.031l.063-.031-.031-.031c-.034-.037-.007-.044-.188-.188-.004-.003-.027-.031-.031-.031-.103-.081-.244-.139-.406-.188-.11-.171-.243-.327-.406-.5l.063-.063c-.034-.038-.037-.075-.219-.219-.003-.002-.028-.001-.031 0-.11-.087-.264-.169-.438-.219-.107-.161-.222-.337-.375-.5l.063-.063c-.034-.038-.036-.074-.219-.219-.102-.081-.277-.138-.438-.188-.111-.173-.242-.356-.406-.531l.063-.063c-.034-.038-.036-.073-.219-.219-.251-.198-.791-.317-1.063-.281-.271.036-.357.103-.406.125-.471.203-.601.427-.719.594-.118.166-.177.316-.25.469-.146.306-.273.628-.406 1.031-.267.807-.573 1.874-.875 3.125-.604 2.503-1.266 5.772-1.813 9.06-.546 3.29-.974 6.595-1.125 9.219-.075 1.312-.075 2.431.031 3.375.053.472.121.888.281 1.313.133.351.445.752.875 1.063-.003.007-.031.063-.031.063.03.022.092.011.125.031.053.033.033.096.094.125.003-.01.031-.094.031-.094.158.3.426.619.781.875-.003.007-.031.063-.031.063.03.022.092.011.125.031.053.033.034.096.094.125.003-.01.031-.094.031-.094.158.299.427.62.781.875-.003.007-.031.063-.031.063.03.021.092.011.125.031.053.033.034.096.094.125.003-.01.031-.094.031-.094.154.292.407.623.75.875-.003.007 0 .063 0 .063.03.021.092.011.125.031.044.027.062.062.094.094.003-.01.031-.063.031-.063.156.296.4.591.75.844-.003.007-.031.063-.031.063.03.021.092.011.125.031.052.032.035.096.094.125.003-.01.031-.094.031-.094.006.003.024.031.031.031.155.294.402.592.75.844-.003.007-.031.063-.031.063.029.021.093.011.125.031.052.032.035.096.094.125.003-.01.031-.094.031-.094.007.004.023.001.031 0 .152.3.394.618.75.875-.003.007-.031.063-.031.063.029.021.093.011.125.031.043.027.062.063.094.094.009-.027.031-.063.031-.063.008.004.021 0 .031 0 .036.071.075.146.125.219-.069-.042-.118-.114-.188-.156-.072-.044-.147-.081-.219-.125-7.424-4.493-16.466-7.675-25.406-10.03-.177-.047-.354-.079-.531-.125-.124-.126-.246-.255-.375-.375-.034-.04-.059-.086-.094-.125-.061-.055-.126-.103-.188-.156-.231-.252-.472-.489-.719-.719-.034-.04-.059-.086-.094-.125-.061-.055-.126-.103-.188-.156-.226-.246-.446-.493-.688-.719-.308-.356-.661-.684-1-1-.426-.493-.89-.93-1.375-1.344-.419-.449-.84-.907-1.313-1.281-.109-.11-.2-.239-.313-.344-.034-.04-.059-.086-.094-.125-.061-.055-.126-.103-.188-.156-.231-.252-.472-.489-.719-.719-.034-.04-.059-.086-.094-.125-.061-.055-.126-.103-.188-.156-.226-.246-.446-.493-.688-.719-.308-.356-.661-.684-1-1-.426-.493-.89-.93-1.375-1.344-.419-.449-.84-.907-1.313-1.281-.109-.11-.2-.239-.313-.344-.034-.04-.059-.086-.094-.125-.061-.055-.126-.103-.188-.156-.231-.252-.472-.489-.719-.719-.034-.04-.059-.086-.094-.125-.061-.055-.126-.103-.188-.156-.226-.246-.446-.493-.688-.719-.308-.356-.661-.684-1-1-.312-.361-.656-.68-1-1-.034-.04-.059-.086-.094-.125-.05-.045-.106-.081-.156-.125-.453-.497-.921-.966-1.438-1.375-.109-.11-.2-.239-.313-.344-.034-.04-.059-.086-.094-.125-.193-.175-.391-.371-.594-.531-.109-.11-.2-.239-.313-.344-.034-.04-.059-.086-.094-.125-.061-.055-.126-.103-.188-.156-.231-.252-.472-.489-.719-.719-.034-.04-.059-.086-.094-.125-.061-.055-.126-.103-.188-.156-.226-.246-.446-.493-.688-.719-.312-.361-.656-.68-1-1-.034-.04-.059-.086-.094-.125-.05-.045-.106-.081-.156-.125-.453-.497-.921-.966-1.438-1.375-.109-.11-.2-.239-.313-.344-.034-.04-.059-.086-.094-.125-.193-.175-.391-.371-.594-.531-.109-.11-.2-.239-.313-.344-.034-.04-.059-.086-.094-.125-.061-.055-.126-.103-.188-.156-.231-.252-.472-.489-.719-.719-.034-.04-.059-.086-.094-.125-.061-.055-.126-.103-.188-.156-.226-.246-.446-.493-.688-.719-.308-.356-.661-.684-1-1-.426-.493-.89-.93-1.375-1.344-.419-.449-.84-.907-1.313-1.281-.109-.11-.2-.239-.313-.344-.034-.04-.059-.086-.094-.125-.061-.055-.126-.103-.188-.156-.231-.252-.472-.489-.719-.719-.034-.04-.059-.086-.094-.125-.061-.055-.126-.103-.188-.156-.226-.246-.446-.493-.688-.719-.308-.356-.661-.684-1-1-.426-.493-.89-.93-1.375-1.344-.419-.449-.84-.907-1.313-1.281-.109-.11-.2-.239-.313-.344-.034-.04-.059-.086-.094-.125-.193-.175-.391-.371-.594-.531-.109-.11-.2-.239-.313-.344-.034-.04-.059-.086-.094-.125-.061-.055-.126-.103-.188-.156-.231-.252-.472-.489-.719-.719-.034-.04-.059-.086-.094-.125-.061-.055-.126-.103-.188-.156-.226-.246-.446-.493-.688-.719-.312-.361-.656-.68-1-1-.034-.04-.059-.086-.094-.125-.05-.045-.106-.081-.156-.125-.453-.497-.921-.966-1.438-1.375-.109-.11-.2-.239-.313-.344-.034-.04-.059-.086-.094-.125-.07-.063-.148-.126-.219-.188-2.043-2.215-4.708-3.641-8-3.531" fill-opacity=".235"/><path d="m313.84 162.69c-1.37.046-2.869.373-4.531 1.031-13.1 4.876-2.41 33.93-1.563 37.688.782 3.459-5.849 3.081-7.094 1.563-2.779-3.394-11.958-33.691-22.781-28.28-15.18 8.369-.91 34.496-3.938 35.34-5.624 3.143-5.273 10.839-9.781 17.09-7.434 10.654-63.08-5.04-81.06-6.125-13.164-.777-25.749 10.06-26.938 8.688-16.03-16.05-49.17-43.997-85.5-53.28-6.097-1.655-13.11-4.247-19.938-7.06-.558 1.347-1.094 2.702-1.625 4.063 6.141 2.902 13.1 5.993 20.938 9.219 34.777 14.317 82.8 50.612 79.03 56.47-11.296 15.91-17.911 34.939-13.313 67.53.829 5.737-17.02 15.687-15.719 24.344 1.085 6.587 19.939-6.527 22-3.938 1.261 4.648-10.08 28.19-5.5 29.875 3.353.996 32.85-27.984 34.563-27.5 48.612 14.696 111.84 3.622 113.06 3.156-.115-.255 45.534 21.438 49.5 18.844 10-10.832-18.985-26.09-14.156-32.19 2.117-3.193 35.27 11.957 36.906 7.813 2.377-7.174-15.389-22.19-18.06-26.656-2.325-4.115-2.807-10.811 3.156-14.969 5.965-4.158 66.964-27.446 64.41-45.5-4.422-32.804-77.39-34.989-78.56-37.75-.51-1.196 2.67-40.01-13.5-39.469zm75.969 21.75c-1.214.524-6.118 25.755-3.75 26.906 2.099 1.57 5.729-25.479 3.813-26.875-.031-.036-.023-.048-.063-.031zm18 3.438c-2.753-.05-17.444 23.402-14.06 25.906 2.099 1.57 15.181-24.956 14.281-25.844-.063-.052-.13-.061-.219-.063z" fill="#fff" stroke="#fff" stroke-width="2.824"/><path d="m256 1c-140.83 0-255 114.17-255 255s114.17 255 255 255 255-114.17 255-255-114.17-255-255-255m8.827 44.931c120.9 0 218.9 98 218.9 218.9s-98 218.9-218.9 218.9-218.93-98-218.93-218.9 98.03-218.9 218.93-218.9" fill-opacity=".067"/><g fill-opacity=".129"><path d="m256 4.433c-138.94 0-251.57 112.63-251.57 251.57s112.63 251.57 251.57 251.57 251.57-112.63 251.57-251.57-112.63-251.57-251.57-251.57m5.885 38.556c120.9 0 218.9 98 218.9 218.9s-98 218.9-218.9 218.9-218.93-98-218.93-218.9 98.03-218.9 218.93-218.9"/><path d="m256 8.356c-136.77 0-247.64 110.87-247.64 247.64s110.87 247.64 247.64 247.64 247.64-110.87 247.64-247.64-110.87-247.64-247.64-247.64m2.942 31.691c120.9 0 218.9 98 218.9 218.9s-98 218.9-218.9 218.9-218.93-98-218.93-218.9 98.03-218.9 218.93-218.9"/></g><path d="m253.04 7.859c-135.42 0-245.19 109.78-245.19 245.19 0 135.42 109.78 245.19 245.19 245.19 135.42 0 245.19-109.78 245.19-245.19 0-135.42-109.78-245.19-245.19-245.19zm0 26.297c120.9 0 218.9 98 218.9 218.9s-98 218.9-218.9 218.9-218.93-98-218.93-218.9 98.03-218.9 218.93-218.9z" fill="#fff" stroke="#000" stroke-opacity=".31" stroke-width="4.904"/></g><text x="729.64001" y="231.36"><tspan x="729.64001" y="231.36"/></text><text transform="scale(4.0128 .2492)" x="378.91" y="579.25"/><text x="1310.91" y="151.36"><tspan x="1310.91" y="151.36"/></text><text transform="scale(4.0128 .2492)" x="523.76001" y="258.22"/><text x="239.33" y="-29.900999"><tspan x="239.33" y="-29.900999"/></text><text transform="scale(4.0128 .2492)" x="256.72" y="-469.14001"/><text x="1337.38" y="-246.37"><tspan x="1337.38" y="-246.37"/></text><text transform="scale(4.0128 .2492)" x="530.35999" y="-1337.8101"/><text x="1918.65" y="-326.38"><tspan x="1918.65" y="-326.38"/></text><text transform="scale(4.0128 .2492)" x="675.21002" y="-1658.85"/><text x="1529.53" y="-798.78003"><tspan x="1529.53" y="-798.78003"/></text><text transform="scale(4.0128 .2492)" x="578.23999" y="-3554.51"/><text x="2110.79" y="-878.78003"><tspan x="2110.79" y="-878.78003"/></text><text transform="scale(4.0128 .2492)" x="723.09003" y="-3875.54"/><text x="277.98999" y="535.94"><tspan x="277.98999" y="535.94"/></text></svg>